<!--?xml version="1.0" encoding="utf-8"?-->
<!-- Generator: Adobe Illustrator 18.1.1, SVG Export Plug-In . SVG Version: 6.00 Build 0)  -->

<svg version="1.1" id="_x32_" xmlns="http://www.w3.org/2000/svg" xmlns:xlink="http://www.w3.org/1999/xlink" x="0px" y="0px" viewBox="0 0 512 512" style="width: 256px; height: 256px; opacity: 1;" xml:space="preserve">
<style type="text/css">
	.st0{fill:#4B4B4B;}
</style>
<g>
	<path class="st0" d="M260.658,337.105l-91.79-48.487c-2.542-1.377-5.665-0.946-7.781,0.998c-2.156,1.961-2.839,5.05-1.69,7.69
		l8.581,20.475H130.71c-11.111-0.034-21.538-2.254-31.087-6.28c-14.298-6.048-26.532-16.208-35.165-28.966
		c-8.581-12.758-13.588-28.003-13.614-44.64c0-11.107,2.207-21.542,6.271-31.091c6.014-14.29,16.182-26.532,28.958-35.144
		c12.788-8.646,28.016-13.601,44.637-13.628v-50.843c-17.976,0-35.242,3.638-50.895,10.272c-23.474,9.962-43.398,26.48-57.49,47.334
		C8.246,185.639,0,210.933,0,237.895c0,17.98,3.652,35.22,10.285,50.895c9.924,23.477,26.467,43.394,47.346,57.468
		c20.815,14.093,46.082,22.368,73.078,22.352h37.268l-8.581,20.414c-1.149,2.659-0.465,5.739,1.652,7.7
		c2.129,1.961,5.278,2.374,7.82,1.024l91.79-48.521c2.232-1.162,3.626-3.51,3.626-6.048
		C264.284,340.632,262.891,338.283,260.658,337.105z" style="fill: rgb(255, 105, 180);"></path>
	<path class="st0" d="M428.03,209.16c-1.716-7.638-4-15.072-6.982-22.143c-9.975-23.504-26.506-43.394-47.359-57.477
		c-20.803-14.1-46.108-22.35-73.092-22.35h-37.255l8.594-20.415c1.136-2.702,0.451-5.764-1.704-7.708
		c-2.116-1.962-5.252-2.375-7.82-1.032l-91.751,48.538c-2.232,1.162-3.664,3.493-3.626,6.04c0,2.529,1.394,4.869,3.652,6.056
		l91.725,48.486c2.556,1.377,5.704,0.98,7.82-0.98c2.142-1.962,2.839-5.042,1.704-7.7l-8.608-20.441h37.268
		c11.124,0,21.551,2.229,31.1,6.255c14.311,6.039,26.557,16.191,35.138,28.958c2.929,4.327,5.252,9.024,7.292,13.851
		c-52.521,10.633-92.074,57.02-92.074,112.682c0,63.49,51.476,114.971,114.966,114.971c63.503,0,114.98-51.481,114.98-114.971
		C512,267.05,476.448,222.71,428.03,209.16z M419.823,387.165h-33.604v-75.63l-17.37,7.287l-13.446-21.292l39.204-33.62h25.215
		V387.165z" style="fill: rgb(255, 105, 180);"></path>
</g>
</svg>
