<!--?xml version="1.0" encoding="utf-8"?-->
<!-- Generator: Adobe Illustrator 18.1.1, SVG Export Plug-In . SVG Version: 6.00 Build 0)  -->

<svg version="1.1" id="_x32_" xmlns="http://www.w3.org/2000/svg" xmlns:xlink="http://www.w3.org/1999/xlink" x="0px" y="0px" viewBox="0 0 512 512" style="width: 256px; height: 256px; opacity: 1;" xml:space="preserve">
<style type="text/css">
	.st0{fill:#4B4B4B;}
</style>
<g>
	<path class="st0" d="M499.795,195.596c-11.804-27.884-31.438-51.515-56.186-68.24c-24.717-16.724-54.739-26.526-86.773-26.518
		h-44.222l10.195-24.234c1.335-3.176,0.531-6.834-1.994-9.158c-2.541-2.316-6.255-2.798-9.295-1.19l-108.932,57.578
		c-2.67,1.399-4.342,4.173-4.326,7.18c0,3.015,1.656,5.797,4.326,7.189l108.932,57.585c3.023,1.608,6.738,1.126,9.279-1.181
		c2.541-2.324,3.344-5.991,2.01-9.158l-10.211-24.266h44.238c13.187,0.008,25.569,2.654,36.906,7.438
		c16.982,7.172,31.518,19.24,41.746,34.389c10.228,15.172,16.161,33.248,16.177,52.994c-0.016,13.17-2.653,25.569-7.445,36.89
		c-7.172,16.982-19.232,31.518-34.381,41.746c-15.18,10.228-33.255,16.161-53.003,16.177v60.344c21.34,0,41.827-4.342,60.416-12.206
		c27.869-11.803,51.508-31.438,68.231-56.178c16.725-24.732,26.534-54.748,26.518-86.773
		C512,234.665,507.658,214.178,499.795,195.596z" style="fill: rgb(255, 105, 180);"></path>
	<path class="st0" d="M309.413,373.796l-108.932-57.585c-3.023-1.608-6.738-1.126-9.278,1.182c-2.541,2.324-3.345,5.998-2.01,9.158
		l10.211,24.265h-44.238c-13.187-0.008-25.569-2.653-36.906-7.437c-16.982-7.172-31.518-19.24-41.746-34.389
		c-10.228-15.164-16.161-33.247-16.178-52.986c0.016-13.178,2.654-25.576,7.445-36.897c7.172-16.982,19.234-31.519,34.381-41.747
		c15.18-10.227,33.256-16.16,53.003-16.177v-60.344c-21.339,0-41.827,4.342-60.416,12.205
		c-27.869,11.804-51.508,31.439-68.231,56.187C9.793,193.956-0.016,223.971,0,256.004c0,21.34,4.342,41.818,12.205,60.4
		c11.804,27.885,31.438,51.516,56.187,68.24c24.716,16.724,54.74,26.526,86.773,26.518h44.222l-10.195,24.234
		c-1.335,3.176-0.53,6.842,1.994,9.158c2.541,2.315,6.256,2.798,9.295,1.19l108.932-57.57c2.669-1.407,4.342-4.181,4.326-7.188
		C313.739,377.97,312.082,375.188,309.413,373.796z" style="fill: rgb(255, 105, 180);"></path>
</g>
</svg>
